<?xml version="1.0" standalone="no"?>
<!DOCTYPE svg PUBLIC "-//W3C//DTD SVG 20010904//EN"
 "http://www.w3.org/TR/2001/REC-SVG-20010904/DTD/svg10.dtd">
<svg version="1.0" xmlns="http://www.w3.org/2000/svg"
 width="70.000000pt" height="70.000000pt" viewBox="0 0 70.000000 70.000000"
 preserveAspectRatio="xMidYMid meet">
<metadata>
Created by potrace 1.11, written by Peter Selinger 2001-2013
</metadata>
<g transform="translate(0.000000,70.000000) scale(0.100000,-0.100000)"
fill="#000000" stroke="none">
<path d="M91 674 c-40 -29 -48 -67 -46 -234 2 -85 3 -158 4 -162 0 -5 30 -8
66 -8 60 0 65 2 66 23 0 12 1 75 1 140 l0 117 189 0 189 0 0 -68 0 -69 -111 1
c-61 1 -115 -2 -120 -5 -6 -3 -9 -35 -7 -70 l3 -64 165 0 165 0 0 205 0 205
-270 3 c-237 2 -273 0 -294 -14z"/>
<path d="M44 80 l1 -70 282 0 c270 0 284 1 303 20 20 20 22 27 25 88 l1 32
-306 0 -306 0 0 -70z"/>
</g>
</svg>
